0
SECTION
2
HEADER
9
$INSUNITS
70
4
9
$ACADVER
1
AC1014
9
$HANDSEED
5
FFFF
0
ENDSEC
0
SECTION
2
TABLES
0
TABLE
2
VPORT
5
8
100
AcDbSymbolTable
0
ENDTAB
0
TABLE
2
LTYPE
5
5
100
AcDbSymbolTable
0
LTYPE
5
14
100
AcDbSymbolTableRecord
100
AcDbLinetypeTableRecord
2
BYBLOCK
70
0
0
LTYPE
5
15
100
AcDbSymbolTableRecord
100
AcDbLinetypeTableRecord
2
BYLAYER
70
0
0
ENDTAB
0
TABLE
2
LAYER
5
2
100
AcDbSymbolTable
70
2
0
LAYER
5
50
100
AcDbSymbolTableRecord
100
AcDbLayerTableRecord
2
0
70
0
6
CONTINUOUS
0
ENDTAB
0
TABLE
2
STYLE
5
3
100
AcDbSymbolTable
70
1
0
STYLE
5
11
100
AcDbSymbolTableRecord
100
AcDbTextStyleTableRecord
2
STANDARD
70
0
0
ENDTAB
0
TABLE
2
VIEW
5
6
100
AcDbSymbolTable
70
0
0
ENDTAB
0
TABLE
2
UCS
5
7
100
AcDbSymbolTable
70
0
0
ENDTAB
0
TABLE
2
APPID
5
9
100
AcDbSymbolTable
70
2
0
APPID
5
12
100
AcDbSymbolTableRecord
100
AcDbRegAppTableRecord
2
ACAD
70
0
0
ENDTAB
0
TABLE
2
DIMSTYLE
5
A
100
AcDbSymbolTable
70
1
0
ENDTAB
0
TABLE
2
BLOCK_RECORD
5
1
100
AcDbSymbolTable
70
1
0
BLOCK_RECORD
5
1F
100
AcDbSymbolTableRecord
100
AcDbBlockTableRecord
2
*MODEL_SPACE
0
BLOCK_RECORD
5
1B
100
AcDbSymbolTableRecord
100
AcDbBlockTableRecord
2
*PAPER_SPACE
0
ENDTAB
0
ENDSEC
0
SECTION
2
BLOCKS
0
BLOCK
5
20
100
AcDbEntity
100
AcDbBlockBegin
2
*MODEL_SPACE
0
ENDBLK
5
21
100
AcDbEntity
100
AcDbBlockEnd
0
BLOCK
5
1C
100
AcDbEntity
100
AcDbBlockBegin
2
*PAPER_SPACE
0
ENDBLK
5
1D
100
AcDbEntity
100
AcDbBlockEnd
0
ENDSEC
0
SECTION
2
ENTITIES
0
LWPOLYLINE
5
100
100
AcDbEntity
8
0
100
AcDbPolyline
90
52
70
1
43
0.0
10
-82.89500000000001
20
-89.02000000000001
10
-82.89500000000001
20
-92.019999999999996
10
-64.14500000000001
20
-92.019999999999996
10
-64.14500000000001
20
-89.02000000000001
10
-45.395000000000003
20
-89.02000000000001
10
-45.395000000000003
20
-92.019999999999996
10
-26.644999999999996
20
-92.019999999999996
10
-26.644999999999996
20
-89.02000000000001
10
-0.02
20
-89.02000000000001
10
-0.020000000000000018
20
-103.895
10
-3.0199999999999982
20
-103.895
10
-3.0199999999999982
20
-122.645
10
-0.02
20
-122.645
10
-0.020000000000000018
20
-141.39500000000001
10
-3.0199999999999982
20
-141.39499999999998
10
-3.0199999999999982
20
-160.14499999999998
10
-0.02
20
-160.14500000000001
10
-0.019999999999997797
20
-175.02000000000004
10
-26.644999999999996
20
-175.01999999999998
10
-26.644999999999996
20
-172.01999999999998
10
-45.395000000000003
20
-172.02000000000001
10
-45.395000000000003
20
-175.02000000000004
10
-64.14500000000001
20
-175.01999999999998
10
-64.14500000000001
20
-172.01999999999998
10
-82.89500000000001
20
-172.02000000000001
10
-82.89500000000001
20
-175.02000000000004
10
-101.64500000000002
20
-175.01999999999998
10
-101.64500000000002
20
-172.01999999999998
10
-120.39500000000002
20
-172.02000000000001
10
-120.39500000000002
20
-175.02000000000004
10
-139.14500000000001
20
-175.01999999999998
10
-139.14500000000001
20
-172.01999999999998
10
-157.89500000000001
20
-172.02000000000001
10
-157.89500000000001
20
-175.02000000000004
10
-184.51999999999998
20
-175.01999999999998
10
-184.51999999999998
20
-160.14499999999998
10
-181.52000000000001
20
-160.14499999999998
10
-181.52000000000001
20
-141.39500000000001
10
-184.51999999999998
20
-141.39500000000001
10
-184.51999999999998
20
-122.645
10
-181.52000000000001
20
-122.645
10
-181.52000000000001
20
-103.895
10
-184.51999999999998
20
-103.895
10
-184.51999999999998
20
-89.02000000000001
10
-157.89500000000001
20
-89.02000000000001
10
-157.89500000000001
20
-92.019999999999996
10
-139.14500000000001
20
-92.019999999999996
10
-139.14500000000001
20
-89.02000000000001
10
-120.39500000000002
20
-89.02000000000001
10
-120.39500000000002
20
-92.019999999999996
10
-101.64500000000002
20
-92.019999999999996
10
-101.64500000000002
20
-89.02000000000001
0
LWPOLYLINE
5
101
100
AcDbEntity
8
0
100
AcDbPolyline
90
4
70
1
43
0.0
10
-102.27000000000004
20
-38.019999999999996
10
-102.27000000000004
20
-48.019999999999996
10
-82.270000000000024
20
-48.019999999999989
10
-82.270000000000039
20
-38.019999999999996
0
LWPOLYLINE
5
102
100
AcDbEntity
8
0
100
AcDbPolyline
90
52
70
1
43
0.0
10
-0.019999999999997797
20
-86.02000000000001
10
-26.645
20
-86.02000000000001
10
-26.645
20
-83.019999999999996
10
-45.395000000000003
20
-83.019999999999996
10
-45.395000000000003
20
-86.02000000000001
10
-64.14500000000001
20
-86.02000000000001
10
-64.14500000000001
20
-83.019999999999996
10
-82.89500000000001
20
-83.019999999999996
10
-82.89500000000001
20
-86.02000000000001
10
-101.64500000000002
20
-86.02000000000001
10
-101.64500000000002
20
-83.019999999999996
10
-120.39500000000002
20
-83.019999999999996
10
-120.39500000000002
20
-86.02000000000001
10
-139.14500000000001
20
-86.02000000000001
10
-139.14500000000001
20
-83.019999999999996
10
-157.89500000000001
20
-83.019999999999996
10
-157.89500000000001
20
-86.02000000000001
10
-184.51999999999998
20
-86.02000000000001
10
-184.51999999999998
20
-71.14500000000001
10
-181.52000000000001
20
-71.14500000000001
10
-181.52000000000001
20
-52.395000000000003
10
-184.51999999999998
20
-52.395000000000003
10
-184.51999999999998
20
-33.644999999999996
10
-181.52000000000001
20
-33.644999999999996
10
-181.52000000000001
20
-14.894999999999996
10
-184.51999999999998
20
-14.894999999999996
10
-184.51999999999998
20
-0.020000000000006679
10
-157.89500000000001
20
-0.020000000000006679
10
-157.89500000000001
20
-3.019999999999996
10
-139.14500000000001
20
-3.019999999999996
10
-139.14500000000001
20
-0.020000000000006679
10
-120.39500000000002
20
-0.020000000000006679
10
-120.39500000000002
20
-3.019999999999996
10
-101.64500000000002
20
-3.019999999999996
10
-101.64500000000002
20
-0.020000000000006679
10
-82.89500000000001
20
-0.020000000000006679
10
-82.89500000000001
20
-3.019999999999996
10
-64.14500000000001
20
-3.019999999999996
10
-64.14500000000001
20
-0.020000000000006679
10
-45.395000000000003
20
-0.020000000000006679
10
-45.395000000000003
20
-3.019999999999996
10
-26.645
20
-3.019999999999996
10
-26.645
20
-0.020000000000006679
10
-0.02
20
-0.020000000000006679
10
-0.020000000000000018
20
-14.894999999999996
10
-3.0200000000000027
20
-14.894999999999996
10
-3.0200000000000027
20
-33.644999999999996
10
-0.02
20
-33.644999999999996
10
-0.020000000000000018
20
-52.395000000000003
10
-3.0200000000000027
20
-52.395000000000003
10
-3.0200000000000027
20
-71.14500000000001
10
-0.02
20
-71.14500000000001
0
LWPOLYLINE
5
103
100
AcDbEntity
8
0
100
AcDbPolyline
90
8
70
1
43
0.0
10
-291.51999999999998
20
-27.519999999999996
10
-232.51999999999998
20
-27.520000000000007
42
0.41421356237309193
10
-227.51999999999998
20
-22.520000000000007
10
-227.51999999999998
20
-12.520000000000016
42
0.41421356237309215
10
-232.51999999999998
20
-7.5200000000000173
10
-291.51999999999998
20
-7.5200000000000173
42
0.41421356237309204
10
-296.51999999999998
20
-12.520000000000007
10
-296.51999999999998
20
-22.520000000000007
42
0.41421356237309193
0
LWPOLYLINE
5
104
100
AcDbEntity
8
0
100
AcDbPolyline
90
44
70
1
43
0.0
10
-190.51999999999998
20
-86.02000000000001
10
-215.14500000000001
20
-86.02000000000001
10
-215.14500000000001
20
-83.019999999999996
10
-233.89500000000001
20
-83.019999999999996
10
-233.89500000000001
20
-86.02000000000001
10
-252.64500000000001
20
-86.02000000000001
10
-252.64500000000001
20
-83.019999999999996
10
-271.39500000000004
20
-83.019999999999996
10
-271.39500000000004
20
-86.02000000000001
10
-290.14500000000004
20
-86.02000000000001
10
-290.14500000000004
20
-83.019999999999996
10
-308.89500000000004
20
-83.019999999999996
10
-308.89500000000004
20
-86.02000000000001
10
-333.52000000000004
20
-86.02000000000001
10
-333.52000000000004
20
-71.14500000000001
10
-336.51999999999998
20
-71.14500000000001
10
-336.51999999999998
20
-52.395000000000003
10
-333.52000000000004
20
-52.395000000000003
10
-333.52000000000004
20
-33.644999999999996
10
-336.51999999999998
20
-33.644999999999996
10
-336.51999999999998
20
-14.894999999999996
10
-333.52000000000004
20
-14.894999999999996
10
-333.52000000000004
20
-0.020000000000006679
10
-308.89500000000004
20
-0.020000000000006679
10
-308.89500000000004
20
-3.019999999999996
10
-290.14500000000004
20
-3.019999999999996
10
-290.14500000000004
20
-0.020000000000006679
10
-271.39500000000004
20
-0.020000000000006679
10
-271.39500000000004
20
-3.019999999999996
10
-252.64500000000001
20
-3.019999999999996
10
-252.64500000000001
20
-0.020000000000006679
10
-233.89500000000001
20
-0.020000000000006679
10
-233.89500000000001
20
-3.019999999999996
10
-215.14500000000001
20
-3.019999999999996
10
-215.14500000000001
20
-0.020000000000006679
10
-190.51999999999998
20
-0.020000000000006679
10
-190.51999999999998
20
-14.894999999999996
10
-187.51999999999998
20
-14.894999999999996
10
-187.51999999999998
20
-33.644999999999996
10
-190.51999999999998
20
-33.644999999999996
10
-190.51999999999998
20
-52.395000000000003
10
-187.51999999999998
20
-52.395000000000003
10
-187.51999999999998
20
-71.14500000000001
10
-190.51999999999998
20
-71.14500000000001
0
LWPOLYLINE
5
105
100
AcDbEntity
8
0
100
AcDbPolyline
90
44
70
1
43
0.0
10
-187.51999999999998
20
-141.39499999999998
10
-187.51999999999998
20
-160.14499999999998
10
-190.51999999999998
20
-160.14500000000001
10
-190.51999999999998
20
-175.02000000000004
10
-215.14500000000001
20
-175.01999999999998
10
-215.14500000000001
20
-172.01999999999998
10
-233.89500000000001
20
-172.02000000000001
10
-233.89500000000001
20
-175.02000000000004
10
-252.64500000000001
20
-175.01999999999998
10
-252.64500000000001
20
-172.01999999999998
10
-271.39500000000004
20
-172.02000000000001
10
-271.39500000000004
20
-175.02000000000004
10
-290.14500000000004
20
-175.01999999999998
10
-290.14500000000004
20
-172.01999999999998
10
-308.89500000000004
20
-172.02000000000001
10
-308.89500000000004
20
-175.02000000000004
10
-333.52000000000004
20
-175.01999999999998
10
-333.52000000000004
20
-160.14499999999998
10
-336.51999999999998
20
-160.14499999999998
10
-336.51999999999998
20
-141.39500000000001
10
-333.52000000000004
20
-141.39500000000001
10
-333.52000000000004
20
-122.645
10
-336.51999999999998
20
-122.645
10
-336.51999999999998
20
-103.895
10
-333.52000000000004
20
-103.895
10
-333.52000000000004
20
-89.02000000000001
10
-308.89500000000004
20
-89.02000000000001
10
-308.89500000000004
20
-92.019999999999996
10
-290.14500000000004
20
-92.019999999999996
10
-290.14500000000004
20
-89.02000000000001
10
-271.39500000000004
20
-89.02000000000001
10
-271.39500000000004
20
-92.019999999999996
10
-252.64500000000001
20
-92.019999999999996
10
-252.64500000000001
20
-89.02000000000001
10
-233.89500000000001
20
-89.02000000000001
10
-233.89500000000001
20
-92.019999999999996
10
-215.14500000000001
20
-92.019999999999996
10
-215.14500000000001
20
-89.02000000000001
10
-190.51999999999998
20
-89.02000000000001
10
-190.51999999999998
20
-103.895
10
-187.51999999999998
20
-103.895
10
-187.51999999999998
20
-122.645
10
-190.51999999999998
20
-122.645
10
-190.51999999999998
20
-141.39500000000001
0
LWPOLYLINE
5
106
100
AcDbEntity
8
0
100
AcDbPolyline
90
4
70
1
43
0.0
10
-447.10000000000008
20
-234.43999999999988
42
-0.99999999999999989
10
-447.10000000000008
20
-230.43999999999997
10
-379.01999999999992
20
-230.43999999999994
42
-0.99999999999999989
10
-379.01999999999992
20
-234.43999999999991
0
LWPOLYLINE
5
107
100
AcDbEntity
8
0
100
AcDbPolyline
90
4
70
1
43
0.0
10
-447.10000000000008
20
-200.84999999999985
10
-379.01999999999992
20
-200.84999999999985
42
0.99999999999999989
10
-379.01999999999992
20
-196.84999999999988
10
-447.10000000000008
20
-196.8499999999998
42
0.99999999999999989
0
LWPOLYLINE
5
108
100
AcDbEntity
8
0
100
AcDbPolyline
90
5
70
1
43
0.0
10
-482.53999999999991
20
-261.26999999999998
10
-482.54000000000008
20
-193.13999999999987
42
0.99999999999999989
10
-486.53999999999996
20
-193.13999999999987
10
-486.39477569491885
20
-261.26999999999998
10
-486.53999999999996
20
-261.26999999999998
42
0.99999999999999989
0
CIRCLE
5
109
100
AcDbEntity
8
0
100
AcDbCircle
10
-372.52000000000004
20
-243.01999999999992
30
0
40
1.4999999999999858
210
0
220
0
230
1
0
CIRCLE
5
110
100
AcDbEntity
8
0
100
AcDbCircle
10
-491.02000000000004
20
-185.01999999999987
30
0
40
1.4999999999999858
210
0
220
0
230
1
0
CIRCLE
5
111
100
AcDbEntity
8
0
100
AcDbCircle
10
-476.02000000000004
20
-268.01999999999998
30
0
40
1.4999999999999858
210
0
220
0
230
1
0
CIRCLE
5
112
100
AcDbEntity
8
0
100
AcDbCircle
10
-456.02000000000004
20
-243.01999999999992
30
0
40
1.4999999999999858
210
0
220
0
230
1
0
CIRCLE
5
113
100
AcDbEntity
8
0
100
AcDbCircle
10
-372.51999999999998
20
-185.01999999999987
30
0
40
1.4999999999999858
210
0
220
0
230
1
0
CIRCLE
5
114
100
AcDbEntity
8
0
100
AcDbCircle
10
-476.02000000000004
20
-185.01999999999987
30
0
40
1.4999999999999858
210
0
220
0
230
1
0
CIRCLE
5
115
100
AcDbEntity
8
0
100
AcDbCircle
10
-491.02000000000004
20
-268.01999999999992
30
0
40
1.4999999999999858
210
0
220
0
230
1
0
CIRCLE
5
116
100
AcDbEntity
8
0
100
AcDbCircle
10
-456.02000000000004
20
-185.01999999999987
30
0
40
1.4999999999999858
210
0
220
0
230
1
0
CIRCLE
5
117
100
AcDbEntity
8
0
100
AcDbCircle
10
-379.32000000000005
20
-261.22000000000003
30
0
40
6.7999999999999972
210
0
220
0
230
1
0
LWPOLYLINE
5
118
100
AcDbEntity
8
0
100
AcDbPolyline
90
60
70
1
43
0.0
10
-521.01999999999998
20
-198.39500000000001
10
-524.0200000000001
20
-198.39500000000001
10
-524.0200000000001
20
-179.64500000000001
10
-521.01999999999998
20
-179.64500000000001
10
-521.01999999999998
20
-155.02000000000001
10
-497.3950000000001
20
-155.02000000000001
10
-497.3950000000001
20
-152.02000000000001
10
-478.6450000000001
20
-152.02000000000001
10
-478.6450000000001
20
-155.02000000000001
10
-459.8950000000001
20
-155.02000000000001
10
-459.8950000000001
20
-152.02000000000001
10
-441.1450000000001
20
-152.02000000000001
10
-441.1450000000001
20
-155.02000000000001
10
-422.3950000000001
20
-155.02000000000001
10
-422.3950000000001
20
-152.02000000000001
10
-403.6450000000001
20
-152.02000000000001
10
-403.6450000000001
20
-155.02000000000001
10
-384.8950000000001
20
-155.02000000000001
10
-384.8950000000001
20
-152.02000000000001
10
-366.1450000000001
20
-152.02000000000001
10
-366.1450000000001
20
-155.02000000000001
10
-342.52000000000004
20
-155.02000000000004
10
-342.52000000000004
20
-179.64500000000001
10
-339.52000000000004
20
-179.64499999999998
10
-339.52000000000004
20
-198.39500000000001
10
-342.52000000000004
20
-198.39500000000001
10
-342.52000000000004
20
-217.14500000000001
10
-339.52000000000004
20
-217.14500000000001
10
-339.52000000000004
20
-235.89500000000001
10
-342.52000000000004
20
-235.89500000000001
10
-342.52000000000004
20
-254.64500000000001
10
-339.52000000000004
20
-254.64500000000001
10
-339.52000000000004
20
-273.39499999999998
10
-342.52000000000004
20
-273.39499999999998
10
-342.52000000000004
20
-298.01999999999998
10
-366.1450000000001
20
-298.02000000000004
10
-366.1450000000001
20
-301.02000000000004
10
-384.8950000000001
20
-301.01999999999998
10
-384.8950000000001
20
-298.01999999999998
10
-403.6450000000001
20
-298.02000000000004
10
-403.6450000000001
20
-301.02000000000004
10
-422.3950000000001
20
-301.01999999999998
10
-422.3950000000001
20
-298.01999999999998
10
-441.1450000000001
20
-298.02000000000004
10
-441.1450000000001
20
-301.02000000000004
10
-459.8950000000001
20
-301.01999999999998
10
-459.8950000000001
20
-298.01999999999998
10
-478.6450000000001
20
-298.02000000000004
10
-478.6450000000001
20
-301.02000000000004
10
-497.3950000000001
20
-301.01999999999998
10
-497.3950000000001
20
-298.01999999999998
10
-521.01999999999998
20
-298.01999999999998
10
-521.01999999999998
20
-273.39499999999998
10
-524.0200000000001
20
-273.39499999999998
10
-524.0200000000001
20
-254.64500000000001
10
-521.01999999999998
20
-254.64500000000001
10
-521.01999999999998
20
-235.89500000000001
10
-524.0200000000001
20
-235.89500000000001
10
-524.0200000000001
20
-217.14500000000001
10
-521.01999999999998
20
-217.14500000000001
0
CIRCLE
5
119
100
AcDbEntity
8
0
100
AcDbCircle
10
-485.42000000000007
20
-11.599999999999998
30
0
40
1.25
210
0
220
-0
230
1
0
CIRCLE
5
120
100
AcDbEntity
8
0
100
AcDbCircle
10
-512.08931971077254
20
-30.419999999999998
30
0
40
1.25
210
0
220
-0
230
1
0
CIRCLE
5
121
100
AcDbEntity
8
0
100
AcDbCircle
10
-485.42000000000007
20
-30.419999999999998
30
0
40
1.25
210
0
220
-0
230
1
0
CIRCLE
5
122
100
AcDbEntity
8
0
100
AcDbCircle
10
-512.04000000000008
20
-11.600000000000001
30
0
40
1.25
210
0
220
-0
230
1
0
CIRCLE
5
123
100
AcDbEntity
8
0
100
AcDbCircle
10
-490.07000000000005
20
-98.620000000000005
30
0
40
1.0000000000000142
210
0
220
0
230
1
0
CIRCLE
5
124
100
AcDbEntity
8
0
100
AcDbCircle
10
-377.52000000000004
20
-50.420000000000002
30
0
40
1.4999999999999858
210
0
220
0
230
1
0
CIRCLE
5
125
100
AcDbEntity
8
0
100
AcDbCircle
10
-428.31999999999999
20
-83.420000000000002
30
0
40
1.4999999999999858
210
0
220
0
230
1
0
CIRCLE
5
126
100
AcDbEntity
8
0
100
AcDbCircle
10
-512.04000000000008
20
-98.620000000000005
30
0
40
1.0000000000000142
210
0
220
0
230
1
0
CIRCLE
5
127
100
AcDbEntity
8
0
100
AcDbCircle
10
-490.07000000000005
20
-60.790000000000006
30
0
40
0.75000000000002842
210
0
220
0
230
1
0
CIRCLE
5
128
100
AcDbEntity
8
0
100
AcDbCircle
10
-377.52000000000004
20
-98.620000000000005
30
0
40
1.4999999999999858
210
0
220
0
230
1
0
CIRCLE
5
129
100
AcDbEntity
8
0
100
AcDbCircle
10
-428.31999999999999
20
-55.52000000000001
30
0
40
1.5000000000000568
210
0
220
0
230
1
0
CIRCLE
5
130
100
AcDbEntity
8
0
100
AcDbCircle
10
-512.04000000000008
20
-60.790000000000013
30
0
40
0.74999999999995737
210
0
220
0
230
1
0
LWPOLYLINE
5
131
100
AcDbEntity
8
0
100
AcDbPolyline
90
60
70
1
43
0.0
10
-459.8950000000001
20
-146.02000000000001
10
-478.6450000000001
20
-146.02000000000001
10
-478.6450000000001
20
-149.02000000000001
10
-497.3950000000001
20
-149.02000000000001
10
-497.3950000000001
20
-146.02000000000001
10
-521.01999999999998
20
-146.02000000000001
10
-521.01999999999998
20
-121.395
10
-524.0200000000001
20
-121.395
10
-524.0200000000001
20
-102.645
10
-521.01999999999998
20
-102.645
10
-521.01999999999998
20
-83.894999999999996
10
-524.0200000000001
20
-83.894999999999996
10
-524.0200000000001
20
-65.144999999999996
10
-521.01999999999998
20
-65.144999999999996
10
-521.01999999999998
20
-46.394999999999996
10
-524.0200000000001
20
-46.394999999999996
10
-524.0200000000001
20
-27.645
10
-521.01999999999998
20
-27.645
10
-521.01999999999998
20
-3.019999999999996
10
-497.3950000000001
20
-3.019999999999996
10
-497.3950000000001
20
-0.020000000000006679
10
-478.6450000000001
20
-0.020000000000006679
10
-478.6450000000001
20
-3.019999999999996
10
-459.8950000000001
20
-3.019999999999996
10
-459.8950000000001
20
-0.020000000000006679
10
-441.1450000000001
20
-0.020000000000006679
10
-441.1450000000001
20
-3.019999999999996
10
-422.3950000000001
20
-3.019999999999996
10
-422.3950000000001
20
-0.020000000000006679
10
-403.6450000000001
20
-0.020000000000006679
10
-403.6450000000001
20
-3.019999999999996
10
-384.8950000000001
20
-3.019999999999996
10
-384.8950000000001
20
-0.020000000000006679
10
-366.1450000000001
20
-0.020000000000006679
10
-366.1450000000001
20
-3.019999999999996
10
-342.52000000000004
20
-3.019999999999996
10
-342.52000000000004
20
-27.645
10
-339.52000000000004
20
-27.645
10
-339.52000000000004
20
-46.394999999999996
10
-342.52000000000004
20
-46.394999999999996
10
-342.52000000000004
20
-65.144999999999996
10
-339.52000000000004
20
-65.144999999999996
10
-339.52000000000004
20
-83.894999999999996
10
-342.52000000000004
20
-83.894999999999996
10
-342.52000000000004
20
-102.645
10
-339.52000000000004
20
-102.645
10
-339.52000000000004
20
-121.395
10
-342.52000000000004
20
-121.395
10
-342.52000000000004
20
-146.02000000000001
10
-366.1450000000001
20
-146.02000000000001
10
-366.1450000000001
20
-149.02000000000001
10
-384.8950000000001
20
-149.02000000000001
10
-384.8950000000001
20
-146.02000000000001
10
-403.6450000000001
20
-146.02000000000001
10
-403.6450000000001
20
-149.02000000000001
10
-422.3950000000001
20
-149.02000000000001
10
-422.3950000000001
20
-146.02000000000001
10
-441.1450000000001
20
-146.02000000000001
10
-441.1450000000001
20
-149.02000000000001
10
-459.8950000000001
20
-149.02000000000001
0
ENDSEC
0
SECTION
2
OBJECTS
0
DICTIONARY
5
C
100
AcDbDictionary
3
ACAD_GROUP
350
D
3
ACAD_MLINESTYLE
350
17
0
DICTIONARY
5
D
100
AcDbDictionary
0
DICTIONARY
5
1A
330
C
100
AcDbDictionary
0
DICTIONARY
5
17
100
AcDbDictionary
0
ENDSEC
0
EOF
